<?xml version="1.0" encoding="UTF-8"?>
<svg xmlns="http://www.w3.org/2000/svg" width="24" height="24" viewBox="0 0 24 24">
  <defs>
    <linearGradient id="bg" x1="0" y1="0" x2="0" y2="1">
      <stop offset="0" stop-color="#f7f7f7"/>
      <stop offset="1" stop-color="#e6e6e6"/>
    </linearGradient>
  </defs>

  <!-- rounded tile -->
  <rect x="1.5" y="1.5" width="21" height="21" rx="4" fill="url(#bg)" stroke="#bdbdbd"/>

  <!-- simple "map" grid -->
  <path d="M6 8.5H18M6 12H18M6 15.5H18" stroke="#c9c9c9" stroke-width="1"/>

  <!-- magnifier (identify) -->
  <circle cx="10" cy="11" r="3.2" fill="none" stroke="#2f2f2f" stroke-width="1.6"/>
  <path d="M12.6 13.6L15.8 16.8" stroke="#2f2f2f" stroke-width="1.8" stroke-linecap="round"/>

  <!-- hand-ish pan hint -->
  <path d="M15.6 9.2c.5-.3 1.1.1 1.1.7v3.5l.7-.6c.4-.3 1 .1 1 .6v3.1c0 1.4-1.2 2.6-2.6 2.6h-2.2c-1 0-1.9-.5-2.3-1.4l-1.2-2.5c-.2-.4 0-.9.4-1.1.4-.2.9 0 1.1.4l.4.8V10c0-.4.3-.8.8-.8.4 0 .8.3.8.8v2.4" fill="none" stroke="#2f2f2f" stroke-width="1.2" stroke-linecap="round" stroke-linejoin="round"/>
</svg>
